<?xml version="1.0" encoding="UTF-8"?><svg xmlns="http://www.w3.org/2000/svg" xmlns:xlink="http://www.w3.org/1999/xlink" fill-opacity="1" color-rendering="auto" color-interpolation="auto" text-rendering="auto" stroke="black" stroke-linecap="square" width="563" stroke-miterlimit="10" shape-rendering="auto" stroke-opacity="1" fill="black" stroke-dasharray="none" font-weight="normal" stroke-width="1" height="238" font-family="'Dialog'" font-style="normal" stroke-linejoin="miter" font-size="12px" stroke-dashoffset="0" image-rendering="auto">
  <!--Generated by ySVG 2.5-->
  <defs id="genericDefs"/>
  <g>
    <defs id="defs1">
      <clipPath clipPathUnits="userSpaceOnUse" id="clipPath1">
        <path d="M0 0 L563 0 L563 238 L0 238 L0 0 Z"/>
      </clipPath>
      <clipPath clipPathUnits="userSpaceOnUse" id="clipPath2">
        <path d="M-2961 -559 L-2398 -559 L-2398 -321 L-2961 -321 L-2961 -559 Z"/>
      </clipPath>
    </defs>
    <g text-rendering="geometricPrecision" shape-rendering="geometricPrecision" transform="translate(2961,559)">
      <rect x="-2961" width="563" height="238" y="-559" clip-path="url(#clipPath2)" stroke="none"/>
    </g>
    <g fill="rgb(102,0,0)" text-rendering="geometricPrecision" shape-rendering="geometricPrecision" transform="matrix(1,0,0,1,2961,559)" stroke="rgb(102,0,0)">
      <rect x="-2539.7539" y="-468" clip-path="url(#clipPath2)" width="125.8281" rx="4" ry="4" height="36" stroke="none"/>
    </g>
    <g stroke-linecap="butt" transform="matrix(1,0,0,1,2961,559)" fill="rgb(204,204,204)" text-rendering="geometricPrecision" shape-rendering="geometricPrecision" stroke="rgb(204,204,204)" stroke-width="2" stroke-miterlimit="1.45">
      <rect x="-2539.7539" y="-468" clip-path="url(#clipPath2)" fill="none" width="125.8281" rx="4" ry="4" height="36"/>
      <text x="-2527.7539" font-size="16px" y="-443.6484" clip-path="url(#clipPath2)" font-family="'Tahoma'" stroke="none" stroke-width="1" xml:space="preserve">MainController</text>
    </g>
    <g fill="rgb(102,0,0)" text-rendering="geometricPrecision" shape-rendering="geometricPrecision" transform="matrix(1,0,0,1,2961,559)" stroke="rgb(102,0,0)">
      <rect x="-2770.7773" y="-372" clip-path="url(#clipPath2)" width="92.5234" rx="4" ry="4" height="36" stroke="none"/>
    </g>
    <g stroke-linecap="butt" transform="matrix(1,0,0,1,2961,559)" fill="rgb(204,204,204)" text-rendering="geometricPrecision" shape-rendering="geometricPrecision" stroke="rgb(204,204,204)" stroke-width="2" stroke-miterlimit="1.45">
      <rect x="-2770.7773" y="-372" clip-path="url(#clipPath2)" fill="none" width="92.5234" rx="4" ry="4" height="36"/>
      <text x="-2758.7773" font-size="16px" y="-347.6484" clip-path="url(#clipPath2)" font-family="'Tahoma'" stroke="none" stroke-width="1" xml:space="preserve">Controller</text>
    </g>
    <g fill="rgb(51,0,102)" text-rendering="geometricPrecision" shape-rendering="geometricPrecision" transform="matrix(1,0,0,1,2961,559)" stroke="rgb(51,0,102)">
      <rect x="-2849.5898" y="-372" clip-path="url(#clipPath2)" width="68.8125" rx="4" ry="4" height="36" stroke="none"/>
    </g>
    <g stroke-linecap="butt" transform="matrix(1,0,0,1,2961,559)" fill="rgb(204,204,204)" text-rendering="geometricPrecision" shape-rendering="geometricPrecision" stroke="rgb(204,204,204)" stroke-width="2" stroke-miterlimit="1.45">
      <rect x="-2849.5898" y="-372" clip-path="url(#clipPath2)" fill="none" width="68.8125" rx="4" ry="4" height="36"/>
      <text x="-2837.5898" font-size="16px" y="-347.6484" clip-path="url(#clipPath2)" font-family="'Tahoma'" stroke="none" stroke-width="1" xml:space="preserve">Config</text>
    </g>
    <g fill="rgb(51,102,0)" text-rendering="geometricPrecision" shape-rendering="geometricPrecision" transform="matrix(1,0,0,1,2961,559)" stroke="rgb(51,102,0)">
      <rect x="-2945.793" y="-372" clip-path="url(#clipPath2)" width="86.2031" rx="4" ry="4" height="36" stroke="none"/>
    </g>
    <g stroke-linecap="butt" transform="matrix(1,0,0,1,2961,559)" fill="rgb(204,204,204)" text-rendering="geometricPrecision" shape-rendering="geometricPrecision" stroke="rgb(204,204,204)" stroke-width="2" stroke-miterlimit="1.45">
      <rect x="-2945.793" y="-372" clip-path="url(#clipPath2)" fill="none" width="86.2031" rx="4" ry="4" height="36"/>
      <text x="-2933.793" font-size="16px" y="-347.6484" clip-path="url(#clipPath2)" font-family="'Tahoma'" stroke="none" stroke-width="1" xml:space="preserve">Endpoint</text>
    </g>
    <g fill="rgb(51,0,102)" text-rendering="geometricPrecision" shape-rendering="geometricPrecision" transform="matrix(1,0,0,1,2961,559)" stroke="rgb(51,0,102)">
      <rect x="-2704.9492" y="-468" clip-path="url(#clipPath2)" width="125.1953" rx="4" ry="4" height="36" stroke="none"/>
    </g>
    <g stroke-linecap="butt" transform="matrix(1,0,0,1,2961,559)" fill="rgb(204,204,204)" text-rendering="geometricPrecision" shape-rendering="geometricPrecision" stroke="rgb(204,204,204)" stroke-width="2" stroke-miterlimit="1.45">
      <rect x="-2704.9492" y="-468" clip-path="url(#clipPath2)" fill="none" width="125.1953" rx="4" ry="4" height="36"/>
      <text x="-2692.9492" font-size="16px" y="-443.6484" clip-path="url(#clipPath2)" font-family="'Tahoma'" stroke="none" stroke-width="1" xml:space="preserve">SecurityConfig</text>
    </g>
    <g fill="rgb(51,102,0)" text-rendering="geometricPrecision" shape-rendering="geometricPrecision" transform="matrix(1,0,0,1,2961,559)" stroke="rgb(51,102,0)">
      <rect x="-2808.832" y="-544" clip-path="url(#clipPath2)" width="47.5859" rx="4" ry="4" height="36" stroke="none"/>
    </g>
    <g stroke-linecap="butt" transform="matrix(1,0,0,1,2961,559)" fill="rgb(204,204,204)" text-rendering="geometricPrecision" shape-rendering="geometricPrecision" stroke="rgb(204,204,204)" stroke-width="2" stroke-miterlimit="1.45">
      <rect x="-2808.832" y="-544" clip-path="url(#clipPath2)" fill="none" width="47.5859" rx="4" ry="4" height="36"/>
      <text x="-2796.832" font-size="16px" y="-519.6484" clip-path="url(#clipPath2)" font-family="'Tahoma'" stroke="none" stroke-width="1" xml:space="preserve">/**</text>
    </g>
    <g fill="rgb(51,102,0)" text-rendering="geometricPrecision" shape-rendering="geometricPrecision" transform="matrix(1,0,0,1,2961,559)" stroke="rgb(51,102,0)">
      <rect x="-2808.832" y="-468" clip-path="url(#clipPath2)" width="63.8828" rx="4" ry="4" height="36" stroke="none"/>
    </g>
    <g stroke-linecap="butt" transform="matrix(1,0,0,1,2961,559)" fill="rgb(204,204,204)" text-rendering="geometricPrecision" shape-rendering="geometricPrecision" stroke="rgb(204,204,204)" stroke-width="2" stroke-miterlimit="1.45">
      <rect x="-2808.832" y="-468" clip-path="url(#clipPath2)" fill="none" width="63.8828" rx="4" ry="4" height="36"/>
      <text x="-2796.832" font-size="16px" y="-443.6484" clip-path="url(#clipPath2)" font-family="'Tahoma'" stroke="none" stroke-width="1" xml:space="preserve">/login</text>
    </g>
    <g fill="rgb(51,102,0)" text-rendering="geometricPrecision" shape-rendering="geometricPrecision" transform="matrix(1,0,0,1,2961,559)" stroke="rgb(51,102,0)">
      <rect x="-2945.793" y="-544" clip-path="url(#clipPath2)" width="96.9609" rx="4" ry="4" height="36" stroke="none"/>
    </g>
    <g stroke-linecap="butt" transform="matrix(1,0,0,1,2961,559)" fill="rgb(204,204,204)" text-rendering="geometricPrecision" shape-rendering="geometricPrecision" stroke="rgb(204,204,204)" stroke-width="2" stroke-miterlimit="1.45">
      <rect x="-2945.793" y="-544" clip-path="url(#clipPath2)" fill="none" width="96.9609" rx="4" ry="4" height="36"/>
      <text x="-2933.793" font-size="16px" y="-519.6484" clip-path="url(#clipPath2)" font-family="'Tahoma'" stroke="none" stroke-width="1" xml:space="preserve">/admin/**</text>
    </g>
    <g fill="rgb(51,102,0)" text-rendering="geometricPrecision" shape-rendering="geometricPrecision" transform="matrix(1,0,0,1,2961,559)" stroke="rgb(51,102,0)">
      <rect x="-2945.793" y="-468" clip-path="url(#clipPath2)" width="83.9531" rx="4" ry="4" height="36" stroke="none"/>
    </g>
    <g stroke-linecap="butt" transform="matrix(1,0,0,1,2961,559)" fill="rgb(204,204,204)" text-rendering="geometricPrecision" shape-rendering="geometricPrecision" stroke="rgb(204,204,204)" stroke-width="2" stroke-miterlimit="1.45">
      <rect x="-2945.793" y="-468" clip-path="url(#clipPath2)" fill="none" width="83.9531" rx="4" ry="4" height="36"/>
      <text x="-2933.793" font-size="16px" y="-443.6484" clip-path="url(#clipPath2)" font-family="'Tahoma'" stroke="none" stroke-width="1" xml:space="preserve">/user/**</text>
      <path fill="none" d="M-2539.7554 -450 L-2570.7568 -450" clip-path="url(#clipPath2)"/>
      <path d="M-2579.7568 -450 L-2566.2568 -444.375 L-2569.6318 -450 L-2566.2568 -455.625 Z" clip-path="url(#clipPath2)" stroke="none"/>
      <path fill="none" d="M-2642.3516 -467.998 L-2642.3516 -526 L-2752.2461 -526" clip-path="url(#clipPath2)"/>
      <path d="M-2761.2461 -526 L-2747.7461 -520.375 L-2751.1211 -526 L-2747.7461 -531.625 Z" clip-path="url(#clipPath2)" stroke="none"/>
      <path fill="none" d="M-2704.9241 -450 L-2735.9485 -450" clip-path="url(#clipPath2)"/>
      <path d="M-2744.9485 -450 L-2731.4485 -444.375 L-2734.8235 -450 L-2731.4485 -455.625 Z" clip-path="url(#clipPath2)" stroke="none"/>
      <path fill="none" d="M-2828.9976 -450.0856 L-2828.832 -526 L-2839.8162 -526" clip-path="url(#clipPath2)"/>
      <path d="M-2848.8162 -526 L-2835.3162 -520.375 L-2838.6912 -526 L-2835.3162 -531.625 Z" clip-path="url(#clipPath2)" stroke="none"/>
      <path fill="none" d="M-2808.8562 -450 L-2831.3997 -450 L-2852.8442 -450" clip-path="url(#clipPath2)"/>
      <path d="M-2861.8442 -450 L-2848.3442 -444.375 L-2851.7192 -450 L-2848.3442 -455.625 Z" clip-path="url(#clipPath2)" stroke="none"/>
    </g>
  </g>
</svg>
